<?xml version="1.0" encoding="utf-8"?>
<!-- Generator: Adobe Illustrator 16.0.0, SVG Export Plug-In . SVG Version: 6.00 Build 0)  -->
<!DOCTYPE svg PUBLIC "-//W3C//DTD SVG 1.1//EN" "http://www.w3.org/Graphics/SVG/1.1/DTD/svg11.dtd">
<svg version="1.1" id="Layer_1" xmlns="http://www.w3.org/2000/svg" xmlns:xlink="http://www.w3.org/1999/xlink" x="0px" y="0px"
	 width="582.746px" height="436.488px" viewBox="0 0 582.746 436.488" enable-background="new 0 0 582.746 436.488"
	 xml:space="preserve">
<g id="Backup" display="none">
	<g display="inline">
		<path fill="#39B54A" d="M232.243-133.979C181.78-14.613,349.576,60.577,357.542,203.655
			c5.354,96.435-60.52,136.676-104.861,156.945c-64.615-24.083-102.615-57.568-105.653-112.159
			c-3.644-65.542,62.16-88.317,70.792-155.148c7.017-54.373-24.848-94.083-20.304-145.739
			C201.287-95.414,232.243-133.979,232.243-133.979z"/>
		<path fill="#39B54A" d="M274.648-192.639c-86.595,130.049,31.396,207.197,51.874,261.09
			C400.248-7.495,227.267-62.794,274.648-192.639z"/>
		<path fill="#39B54A" d="M180.822,23.566c64.402,68.021-20.173,127.128-32.98,160.151
			C106.799,123.015,219.226,88.424,180.822,23.566z"/>
		<path fill="#39B54A" d="M283.972-221.823c40.711,21.605,10.562,62.448,9.777,79.855
			C265.071-163.824,312.069-197.609,283.972-221.823z"/>
	</g>
	<path id="run_1_" display="inline" fill="#006838" d="M231.584,383.814l15.04-27.07c3.293,0.214,6.607,0.203,9.94,0.01
		l15.082,27.071c5.435-1.009,10.776-2.518,16.089-4.404l-0.489-30.793c3.038-1.428,5.944-3.049,8.677-4.966l26.408,15.805
		c2.101-1.774,4.17-3.62,6.168-5.618c1.998-1.999,3.794-4.1,5.619-6.169l-15.814-26.397c1.855-2.814,3.467-5.731,4.976-8.688
		l30.803,0.479c1.795-5.261,3.324-10.624,4.334-16.079l-27.081-15.029c0.233-3.313,0.213-6.638-0.021-9.973l27.082-15.029
		c-1.03-5.454-2.56-10.817-4.404-16.089l-30.834,0.51c-1.479-2.968-3.09-5.884-4.966-8.697l15.824-26.388
		c-1.804-2.111-3.609-4.221-5.598-6.209s-4.098-3.793-6.199-5.587l-26.397,15.814c-2.814-1.876-5.73-3.488-8.697-4.966l0.52-30.823
		c-5.261-1.794-10.604-3.304-16.059-4.333l-15.04,27.071c-3.313-0.214-6.617-0.214-9.932-0.021l-15.028-27.061
		c-5.466,1.02-10.828,2.549-16.09,4.405l0.5,30.823c-2.968,1.479-5.884,3.089-8.697,4.965l-26.389-15.824
		c-2.11,1.805-4.221,3.609-6.199,5.588c-1.988,1.988-3.783,4.109-5.598,6.209l15.814,26.398c-1.846,2.824-3.467,5.73-4.966,8.697
		l-30.812-0.51c-1.846,5.251-3.376,10.613-4.386,16.069l27,15.09c-0.214,3.314-0.174,6.598-0.01,9.962l-27.03,14.999
		c1.03,5.454,2.539,10.798,4.395,16.079l30.823-0.499c1.459,2.967,3.09,5.883,4.966,8.677l-15.804,26.408
		c1.774,2.1,3.589,4.201,5.587,6.198c2.009,2.01,4.109,3.805,6.22,5.609l26.389-15.824c2.803,1.865,5.729,3.486,8.687,4.976
		l-0.51,30.813C220.777,381.265,226.12,382.795,231.584,383.814z M225.293,303.295c-14.52-14.52-14.509-38.043,0.011-52.562
		c14.52-14.521,38.042-14.53,52.562-0.011c14.509,14.509,14.51,38.042-0.011,52.562
		C263.346,317.793,239.802,317.804,225.293,303.295z M290.164,478.059c4.373-4.089,8.063-9.003,11.021-14.571l23.329-4.078
		c1.254-4.169,2.181-8.381,2.601-12.551l-19.802-13.012c-0.552-6.076-2.08-12.071-4.497-17.711l11.349-20.81
		c-2.467-3.508-5.2-6.812-8.27-9.881l-22.513,7.465c-2.61-1.714-5.354-3.335-8.229-4.641c-2.845-1.335-5.558-2.151-8.372-2.905
		l-9.177-21.82c-4.363-0.244-8.605-0.184-12.897,0.316l-8.218,22.248c-5.823,1.805-11.308,4.558-16.284,8.269l-22.87-6.453
		c-2.864,3.15-5.384,6.545-7.759,10.287l12.256,20.291c-2.263,5.813-3.487,11.848-3.711,17.864l-19.271,13.805
		c0.673,4.242,1.754,8.442,3.161,12.542l23.471,3.08c3.019,5.261,7.047,10.021,11.727,13.969l-1.173,23.645
		c1.999,1.04,3.946,2.172,6.067,3.15c1.946,0.969,3.854,1.611,5.812,2.264l16.905-16.579c6.117,0.897,12.347,0.846,18.159-0.458
		l17.772,15.671c3.874-1.632,7.76-3.539,11.451-5.761L290.164,478.059z M242.433,461.388c-12.815-5.761-18.557-20.801-12.816-33.638
		c5.741-12.838,20.802-18.598,33.638-12.857c12.827,5.75,18.577,20.82,12.837,33.658
		C270.352,461.388,255.271,467.127,242.433,461.388z"/>
</g>
<path id="run_2_" display="none" fill="#006838" d="M231.584,383.814l15.04-27.07c3.293,0.214,6.607,0.203,9.94,0.01l15.082,27.071
	c5.435-1.009,10.776-2.518,16.089-4.404l-0.489-30.793c3.038-1.428,5.944-3.049,8.677-4.966l26.408,15.805
	c2.101-1.774,4.17-3.62,6.168-5.618c1.998-1.999,3.794-4.1,5.619-6.169l-15.814-26.397c1.855-2.814,3.467-5.731,4.976-8.688
	l30.803,0.479c1.795-5.261,3.324-10.624,4.334-16.079l-27.081-15.029c0.233-3.313,0.213-6.638-0.021-9.973l27.082-15.029
	c-1.03-5.454-2.56-10.817-4.404-16.089l-30.834,0.51c-1.479-2.968-3.09-5.884-4.966-8.697l15.824-26.388
	c-1.804-2.111-3.609-4.221-5.598-6.209s-4.098-3.793-6.199-5.587l-26.397,15.814c-2.814-1.876-5.73-3.488-8.697-4.966l0.52-30.823
	c-5.261-1.794-10.604-3.304-16.059-4.333l-15.04,27.071c-3.313-0.214-6.617-0.214-9.932-0.021l-15.028-27.061
	c-5.466,1.02-10.828,2.549-16.09,4.405l0.5,30.823c-2.968,1.479-5.884,3.089-8.697,4.965l-26.389-15.824
	c-2.11,1.805-4.221,3.609-6.199,5.588c-1.988,1.988-3.783,4.109-5.598,6.209l15.814,26.398c-1.846,2.824-3.467,5.73-4.966,8.697
	l-30.812-0.51c-1.846,5.251-3.376,10.613-4.386,16.069l27,15.09c-0.214,3.314-0.174,6.598-0.01,9.962l-27.03,14.999
	c1.03,5.454,2.539,10.798,4.395,16.079l30.823-0.499c1.459,2.967,3.09,5.883,4.966,8.677l-15.804,26.408
	c1.774,2.1,3.589,4.201,5.587,6.198c2.009,2.01,4.109,3.805,6.22,5.609l26.389-15.824c2.803,1.865,5.729,3.486,8.687,4.976
	l-0.51,30.813C220.777,381.265,226.12,382.795,231.584,383.814z M225.293,303.295c-14.52-14.52-14.509-38.043,0.011-52.562
	c14.52-14.521,38.042-14.53,52.562-0.011c14.509,14.509,14.51,38.042-0.011,52.562C263.346,317.793,239.802,317.804,225.293,303.295
	z M290.164,478.059c4.373-4.089,8.063-9.003,11.021-14.571l23.329-4.078c1.254-4.169,2.181-8.381,2.601-12.551l-19.802-13.012
	c-0.552-6.076-2.08-12.071-4.497-17.711l11.349-20.81c-2.467-3.508-5.2-6.812-8.27-9.881l-22.513,7.465
	c-2.61-1.714-5.354-3.335-8.229-4.641c-2.845-1.335-5.558-2.151-8.372-2.905l-9.177-21.82c-4.363-0.244-8.605-0.184-12.897,0.316
	l-8.218,22.248c-5.823,1.805-11.308,4.558-16.284,8.269l-22.87-6.453c-2.864,3.15-5.384,6.545-7.759,10.287l12.256,20.291
	c-2.263,5.813-3.487,11.848-3.711,17.864l-19.271,13.805c0.673,4.242,1.754,8.442,3.161,12.542l23.471,3.08
	c3.019,5.261,7.047,10.021,11.727,13.969l-1.173,23.645c1.999,1.04,3.946,2.172,6.067,3.15c1.946,0.969,3.854,1.611,5.812,2.264
	l16.905-16.579c6.117,0.897,12.347,0.846,18.159-0.458l17.772,15.671c3.874-1.632,7.76-3.539,11.451-5.761L290.164,478.059z
	 M242.433,461.388c-12.815-5.761-18.557-20.801-12.816-33.638c5.741-12.838,20.802-18.598,33.638-12.857
	c12.827,5.75,18.577,20.82,12.837,33.658C270.352,461.388,255.271,467.127,242.433,461.388z"/>
<circle display="none" fill="#006838" cx="251.57" cy="277.269" r="80.053"/>
<g display="none">
	<g display="inline">
		<path fill="#39B54A" d="M86.002,397.309c-0.95,1.49-1.85,3.01-2.7,4.56c-0.26,0.49-0.52,0.98-0.77,1.471
			c-0.19,0.37-0.38,0.739-0.57,1.109l-0.42-0.01c1.44-2.39,2.85-4.63,4.18-6.7C85.813,397.589,85.913,397.449,86.002,397.309z"/>
		<path fill="#39B54A" d="M233.333,444.969c0.24-3.32,0.22-6.641-0.02-9.98l0.13-0.069c-2.75-41.721-37.46-74.7-79.87-74.7
			c-27.52,0-51.8,13.88-66.21,35.02c15.26-22.93,32.26-37.329,36.67-71.46c5.74-44.47-20.33-76.949-16.61-119.2
			c3.09-35.14,28.4-66.68,28.4-66.68c-41.27,97.63,92.53,158.591,99.05,275.62C235.523,425.229,234.873,435.659,233.333,444.969z"/>
		<path fill="#39B54A" d="M170.512,89.917c-70.829,106.369,25.679,169.47,42.427,213.55
			C273.241,241.348,131.757,196.118,170.512,89.917z"/>
		<path fill="#39B54A" d="M93.769,266.753c52.676,55.635-16.5,103.98-26.975,130.99C33.225,348.094,125.181,319.801,93.769,266.753z
			"/>
		<path fill="#39B54A" d="M178.137,66.046c33.299,17.671,8.639,51.077,7.997,65.315C162.677,113.484,201.119,85.851,178.137,66.046z
			"/>
	</g>
	<path display="inline" fill="#006838" d="M225.422,475.599l30.66,0.47c1.79-5.26,3.32-10.62,4.33-16.08l-26.93-14.939l-0.15-0.08
		c0.24-3.32,0.22-6.641-0.02-9.98l0.13-0.069c-2.75-41.721-37.46-74.7-79.87-74.7c-1.45,0-2.9,0.04-4.33,0.12
		c-0.44,0.02-0.87,0.05-1.3,0.08c-0.35,0.02-0.69,0.039-1.03,0.07c-0.26,0.02-0.53,0.049-0.79,0.069c-0.61,0.06-1.23,0.12-1.84,0.2
		c-0.29,0.029-0.58,0.06-0.87,0.1c-1.71,0.21-3.4,0.48-5.07,0.811c-0.45,0.08-0.9,0.17-1.34,0.27c-0.45,0.09-0.89,0.189-1.33,0.29
		c-0.89,0.2-1.77,0.42-2.64,0.649c-0.43,0.111-0.86,0.23-1.28,0.351c-0.88,0.25-1.75,0.511-2.62,0.79
		c-0.43,0.141-0.85,0.279-1.28,0.42c-0.46,0.16-0.92,0.32-1.39,0.49c-0.38,0.13-0.76,0.27-1.14,0.42c-1.25,0.47-2.49,0.97-3.72,1.51
		c-0.4,0.17-0.81,0.36-1.21,0.54c-0.41,0.181-0.81,0.37-1.21,0.56c-0.3,0.15-0.6,0.291-0.9,0.44c-0.2,0.091-0.4,0.19-0.6,0.29
		c-0.69,0.35-1.38,0.71-2.06,1.08c-0.31,0.16-0.61,0.33-0.92,0.51c-0.47,0.25-0.93,0.51-1.39,0.78c-0.51,0.3-1.02,0.601-1.52,0.92
		c-0.54,0.319-1.07,0.66-1.6,1.011c-0.11,0.059-0.22,0.129-0.33,0.209c-0.51,0.32-1.01,0.66-1.51,1.01
		c-0.29,0.19-0.58,0.391-0.87,0.601c-1.35,0.95-2.67,1.94-3.96,2.979c-0.67,0.541-1.34,1.08-1.99,1.65
		c-0.59,0.5-1.17,1.01-1.75,1.54c-0.35,0.319-0.7,0.63-1.04,0.96c-0.27,0.25-0.53,0.5-0.8,0.77c-0.37,0.351-0.74,0.711-1.11,1.101
		c-0.18,0.16-0.34,0.33-0.5,0.5c-0.49,0.479-0.96,0.979-1.42,1.479c-0.06,0.061-0.11,0.121-0.17,0.19
		c-0.48,0.511-0.94,1.021-1.38,1.54c-0.45,0.49-0.88,1-1.3,1.51c-0.51,0.601-1,1.21-1.48,1.83c-0.42,0.53-0.83,1.061-1.23,1.61
		c-0.69,0.91-1.34,1.83-1.99,2.77c-0.46,0.681-0.92,1.37-1.36,2.07c-0.95,1.49-1.85,3.01-2.7,4.56c-0.26,0.49-0.52,0.98-0.77,1.471
		c-0.19,0.37-0.38,0.739-0.57,1.109l-0.42-0.01l-30.39-0.5c-1.85,5.25-3.38,10.61-4.39,16.07l21.86,12.22l5.06,2.83l0.08,0.04
		c-0.21,3.31-0.17,6.59-0.01,9.96l-0.09,0.05l-7.58,4.21l-19.36,10.74c1.03,5.45,2.54,10.79,4.4,16.08l19.99-0.33l10.62-0.17h0.21
		c1.46,2.96,3.09,5.88,4.96,8.67l-0.09,0.15l-5.97,9.979l-9.74,16.28c1.77,2.1,3.59,4.2,5.59,6.2c2.01,2.01,4.11,3.8,6.22,5.609
		l15.54-9.319l10.63-6.381l0.22-0.13c2.8,1.87,5.72,3.49,8.68,4.98l-0.01,0.3l-0.24,14.45l-0.26,16.06
		c5.3,1.78,10.65,3.311,16.11,4.32l5.45-9.81l9.36-16.851l0.23-0.41c3.29,0.221,6.61,0.21,9.94,0.011l0.22,0.399l7.72,13.86
		l7.14,12.819c5.44-1.01,10.78-2.52,16.091-4.409l-0.44-27.57l-0.05-2.91v-0.31c3.04-1.431,5.95-3.051,8.68-4.971l0.21,0.12
		l26.2,15.69c2.1-1.78,4.17-3.62,6.17-5.62c1.99-2,3.79-4.1,5.62-6.17l-15.75-26.29l-0.07-0.11c1.86-2.81,3.471-5.729,4.98-8.68
		H225.422z M179.853,466.289c-14.511,14.5-38.05,14.521-52.561,0.011c-14.52-14.521-14.51-38.05,0.01-52.57
		c14.52-14.52,38.04-14.53,52.56-0.01C194.373,428.229,194.373,451.769,179.853,466.289z"/>
	<path display="inline" fill="#006838" d="M233.443,434.919c-2.75-41.721-37.46-74.7-79.87-74.7c-1.45,0-2.9,0.04-4.33,0.12
		c-0.44,0.02-0.87,0.05-1.3,0.08c-0.35,0.02-0.69,0.039-1.03,0.07c-0.26,0.02-0.53,0.049-0.79,0.069c-0.61,0.06-1.23,0.12-1.84,0.2
		c-0.29,0.029-0.58,0.06-0.87,0.1c-1.71,0.21-3.4,0.48-5.07,0.811c-0.45,0.08-0.9,0.17-1.34,0.27c-0.45,0.09-0.89,0.189-1.33,0.29
		c-0.89,0.2-1.77,0.42-2.64,0.649c-0.43,0.111-0.86,0.23-1.28,0.351c-0.88,0.25-1.75,0.511-2.62,0.79
		c-0.43,0.141-0.85,0.279-1.28,0.42c-0.46,0.16-0.92,0.32-1.39,0.49c-0.38,0.13-0.76,0.27-1.14,0.42c-1.25,0.47-2.49,0.97-3.72,1.51
		c-0.4,0.17-0.81,0.36-1.21,0.54c-0.41,0.181-0.81,0.37-1.21,0.56c-0.3,0.15-0.6,0.291-0.9,0.44c-0.2,0.091-0.4,0.19-0.6,0.29
		c-0.69,0.35-1.38,0.71-2.06,1.08c-0.31,0.16-0.61,0.33-0.92,0.51c-0.47,0.25-0.93,0.51-1.39,0.78c-0.51,0.3-1.02,0.601-1.52,0.92
		c-0.54,0.319-1.07,0.66-1.6,1.011c-0.11,0.059-0.22,0.129-0.33,0.209c-0.51,0.32-1.01,0.66-1.51,1.01
		c-0.29,0.19-0.58,0.391-0.87,0.601c-1.35,0.95-2.67,1.94-3.96,2.979c-0.67,0.541-1.34,1.08-1.99,1.65
		c-0.59,0.5-1.17,1.01-1.75,1.54c-0.35,0.319-0.7,0.63-1.04,0.96c-0.27,0.25-0.53,0.5-0.8,0.77c-0.37,0.351-0.74,0.711-1.11,1.101
		c-0.18,0.16-0.34,0.33-0.5,0.5c-0.49,0.479-0.96,0.979-1.42,1.479c-0.06,0.061-0.11,0.121-0.17,0.19
		c-0.48,0.511-0.94,1.021-1.38,1.54c-0.45,0.49-0.88,1-1.3,1.51c-0.51,0.601-1,1.21-1.48,1.83c-0.42,0.53-0.83,1.061-1.23,1.61
		c-0.69,0.91-1.34,1.83-1.99,2.77c-0.46,0.681-0.92,1.37-1.36,2.07c-0.95,1.49-1.85,3.01-2.7,4.56c-0.26,0.49-0.52,0.98-0.77,1.471
		c-0.19,0.37-0.38,0.739-0.57,1.109c-4.67,9.311-7.58,19.66-8.28,30.61c-0.11,1.72-0.17,3.46-0.17,5.21c0,1.63,0.05,3.24,0.15,4.84
		c0.64,10.91,3.48,21.23,8.07,30.53c1.51,3.06,3.2,6,5.08,8.82c5.86,8.85,13.45,16.46,22.27,22.369c2.84,1.9,5.81,3.62,8.89,5.15
		c9.26,4.61,19.55,7.48,30.42,8.17c1.71,0.11,3.44,0.17,5.18,0.17c1.75,0,3.49-0.06,5.21-0.17c10.89-0.7,21.189-3.57,30.46-8.21
		c3.08-1.52,6.05-3.25,8.89-5.16c8.811-5.91,16.391-13.54,22.24-22.39c1.86-2.811,3.55-5.74,5.05-8.79
		c4.59-9.3,7.42-19.63,8.061-30.55c0.09-1.58,0.14-3.17,0.14-4.78C233.623,438.469,233.563,436.689,233.443,434.919z
		 M179.853,466.289c-14.511,14.5-38.05,14.521-52.561,0.011c-14.52-14.521-14.51-38.05,0.01-52.57
		c14.52-14.52,38.04-14.53,52.56-0.01C194.373,428.229,194.373,451.769,179.853,466.289z"/>
</g>
<text transform="matrix(1 0 0 1 -76.1143 451.019)" display="none" font-family="'PFTransitBold'" font-size="99">BOT OLYMPICS</text>
<g id="Backup_1_" display="none">
	<g id="OLYMPICS_1_" display="inline">
		<path d="M289.921,356.497h-47.521v-69.3h14.85v55.836h32.671V356.497z"/>
		<path d="M346.748,287.197l-25.146,42.669v26.631h-15.047v-26.433l-25.246-42.867h17.127l8.119,14.751
			c3.102,5.677,5.607,10.989,7.523,15.938c1.387-3.894,3.893-9.173,7.523-15.84l8.119-14.85H346.748z"/>
		<path d="M417.63,356.497h-14.156v-26.532c0-6.599,0.098-11.714,0.297-15.345c-0.859,2.178-2.938,6.996-6.238,14.454
			l-12.969,29.205l-12.869-29.106c-1.98-4.554-4.059-9.404-6.238-14.553c0.199,3.631,0.299,8.712,0.299,15.246v26.631h-13.957v-69.3
			h14.209l12.123,27.72c1.922,4.291,4.174,9.769,6.76,16.434c0.729-2.376,2.947-7.853,6.656-16.434l11.928-27.72h14.156V356.497z"/>
		<path d="M485.939,309.471c0,7.657-2.375,13.465-7.127,17.425c-4.49,3.63-10.66,5.444-18.514,5.444h-13.859v24.156h-14.652v-69.3
			h29.402c7.656,0,13.596,1.782,17.82,5.346C483.628,296.372,485.939,302.014,485.939,309.471z M471.089,309.669
			c0-6.534-3.4-9.801-10.197-9.801h-14.553v19.8h14.412C467.642,319.668,471.089,316.336,471.089,309.669z"/>
		<path d="M510.292,356.497h-15.049v-69.3h15.049V356.497z"/>
		<path d="M579.591,341.944c-5.742,10.429-14.521,15.642-26.334,15.642c-9.439,0-16.93-3.366-22.473-10.098
			c-5.346-6.468-8.02-15.015-8.02-25.642c0-10.757,2.805-19.403,8.416-25.938c5.607-6.534,12.969-9.801,22.076-9.801
			c6.797,0,12.309,1.42,16.533,4.257c3.826,2.641,6.994,6.766,9.504,12.375l-13.266,6.336c-1.65-3.3-3.334-5.609-5.049-6.93
			c-1.98-1.649-4.555-2.476-7.723-2.476c-4.949,0-8.713,2.047-11.285,6.138c-2.51,3.829-3.764,9.175-3.764,16.038
			c0,6.799,1.254,12.112,3.764,15.939c2.639,4.158,6.434,6.237,11.385,6.237c3.168,0,5.84-0.759,8.018-2.277
			c1.914-1.386,3.828-3.695,5.742-6.93L579.591,341.944z"/>
		<path d="M640.673,335.905c0,7.063-2.359,12.441-7.078,16.137c-4.719,3.697-11.402,5.544-20.047,5.544
			c-10.627,0-19.604-3.267-26.93-9.801l8.416-11.188c2.508,2.179,5.527,3.994,9.059,5.445c3.529,1.452,6.881,2.178,10.049,2.178
			c7.787,0,11.682-2.408,11.682-7.227c0-1.98-0.99-3.613-2.971-4.9c-1.979-1.287-5.543-2.624-10.691-4.01
			c-8.514-2.243-14.355-4.686-17.523-7.326c-3.828-3.168-5.742-7.854-5.742-14.058c0-6.203,2.326-11.188,6.98-14.949
			c4.652-3.762,10.707-5.643,18.166-5.643c9.701,0,18.084,2.904,25.146,8.712l-8.316,11.286c-5.346-4.421-11.254-6.634-17.721-6.634
			c-6.271,0-9.406,2.146-9.406,6.436c0,1.849,0.924,3.351,2.773,4.504c1.846,1.156,5.346,2.426,10.494,3.812
			c8.314,2.245,14.189,4.786,17.621,7.623C638.66,325.212,640.673,329.9,640.673,335.905z"/>
	</g>
	<g id="BOT_1_" display="inline">
		<path d="M151.475,241.099c0,24.657-14.058,36.984-42.172,36.984H57.927V160.938h52.381c24.877,0,37.318,10.153,37.318,30.457
			c0,10.377-4.854,18.075-14.559,23.094C145.338,218.841,151.475,227.71,151.475,241.099z M122.858,194.073h0.167
			c0-8.253-4.409-12.384-13.221-12.384H81.69v24.433h27.948C118.45,206.122,122.858,202.105,122.858,194.073z M110.474,226.539
			H81.69v30.793h28.449c11.044,0,16.568-5.188,16.568-15.564C126.708,231.727,121.294,226.651,110.474,226.539z"/>
		<path d="M411.225,183.698h-33.469v94.386H352.82v-94.386h-33.635v-22.759h92.04V183.698z"/>
	</g>
	<path display="inline" fill="none" stroke="#FFFFFF" stroke-width="8" stroke-miterlimit="10" d="M293.365,242.113l22.625,0.348
		c1.321-3.881,2.45-7.838,3.195-11.866l-19.872-11.024l-0.111-0.059c0.178-2.45,0.162-4.9-0.015-7.365l0.097-0.051
		c0.088,1.306,0.132,2.62,0.132,3.948c0,0.827-0.014,1.638-0.059,2.45c1.025-6.612,1.439-13.977,0.981-22.19
		c-4.811-86.359-103.546-131.344-73.092-203.388c0,0-18.677,23.274-20.958,49.206c-2.745,31.177,16.493,55.146,12.257,87.961
		c-3.254,25.186-15.799,35.812-27.06,52.732c-0.34,0.502-0.68,1.011-1.004,1.527c-0.701,1.1-1.365,2.221-1.992,3.365
		c-0.192,0.362-0.384,0.724-0.568,1.085c-0.14,0.273-0.281,0.545-0.421,0.818l-0.31-0.007l-22.426-0.369
		c-1.365,3.874-2.494,7.83-3.239,11.859l16.131,9.017l3.734,2.088l0.059,0.03c-0.155,2.442-0.125,4.863-0.008,7.35l-0.066,0.037
		l-5.594,3.107l-14.286,7.925c0.76,4.021,1.875,7.963,3.247,11.865l14.751-0.242l7.836-0.125h0.155
		c1.077,2.184,2.28,4.338,3.66,6.396l-0.066,0.111l-4.405,7.363l-7.188,12.014c1.306,1.551,2.649,3.1,4.125,4.576
		c1.483,1.482,3.033,2.805,4.59,4.139l11.467-6.877l7.844-4.709l0.163-0.096c2.066,1.381,4.221,2.576,6.405,3.676l-0.007,0.221
		l-0.178,10.664l-0.191,11.852c3.911,1.313,7.859,2.441,11.888,3.188l4.022-7.238l6.907-12.436l0.169-0.303
		c2.428,0.164,4.878,0.156,7.335,0.008l0.162,0.295l5.697,10.229l5.269,9.459c4.015-0.744,7.955-1.859,11.874-3.254l-0.325-20.344
		l-0.037-2.148v-0.229c2.243-1.055,4.392-2.25,6.405-3.668l0.154,0.09l19.334,11.578c1.55-1.314,3.077-2.672,4.554-4.148
		c1.469-1.475,2.797-3.023,4.147-4.553l-11.623-19.4l-0.052-0.08c1.373-2.074,2.562-4.229,3.676-6.406H293.365z M259.738,235.244
		c-10.708,10.699-28.079,10.715-38.786,0.008c-10.714-10.715-10.707-28.079,0.008-38.793s28.07-10.723,38.786-0.007
		C270.453,207.158,270.453,224.529,259.738,235.244z"/>
	<path display="inline" fill="#006838" d="M293.365,242.113l22.625,0.348c1.321-3.881,2.45-7.838,3.195-11.866l-19.872-11.024
		l-0.111-0.059c0.178-2.45,0.162-4.9-0.015-7.365l0.097-0.051c0.088,1.306,0.132,2.62,0.132,3.948c0,0.827-0.014,1.638-0.059,2.45
		c1.025-6.612,1.439-13.977,0.981-22.19c-4.811-86.359-103.546-131.344-73.092-203.388c0,0-18.677,23.274-20.958,49.206
		c-2.745,31.177,16.493,55.146,12.257,87.961c-3.254,25.186-15.799,35.812-27.06,52.732c-0.34,0.502-0.68,1.011-1.004,1.527
		c-0.701,1.1-1.365,2.221-1.992,3.365c-0.192,0.362-0.384,0.724-0.568,1.085c-0.14,0.273-0.281,0.545-0.421,0.818l-0.31-0.007
		l-22.426-0.369c-1.365,3.874-2.494,7.83-3.239,11.859l16.131,9.017l3.734,2.088l0.059,0.03c-0.155,2.442-0.125,4.863-0.008,7.35
		l-0.066,0.037l-5.594,3.107l-14.286,7.925c0.76,4.021,1.875,7.963,3.247,11.865l14.751-0.242l7.836-0.125h0.155
		c1.077,2.184,2.28,4.338,3.66,6.396l-0.066,0.111l-4.405,7.363l-7.188,12.014c1.306,1.551,2.649,3.1,4.125,4.576
		c1.483,1.482,3.033,2.805,4.59,4.139l11.467-6.877l7.844-4.709l0.163-0.096c2.066,1.381,4.221,2.576,6.405,3.676l-0.007,0.221
		l-0.178,10.664l-0.191,11.852c3.911,1.313,7.859,2.441,11.888,3.188l4.022-7.238l6.907-12.436l0.169-0.303
		c2.428,0.164,4.878,0.156,7.335,0.008l0.162,0.295l5.697,10.229l5.269,9.459c4.015-0.744,7.955-1.859,11.874-3.254l-0.325-20.344
		l-0.037-2.148v-0.229c2.243-1.055,4.392-2.25,6.405-3.668l0.154,0.09l19.334,11.578c1.55-1.314,3.077-2.672,4.554-4.148
		c1.469-1.475,2.797-3.023,4.147-4.553l-11.623-19.4l-0.052-0.08c1.373-2.074,2.562-4.229,3.676-6.406H293.365z M259.738,235.244
		c-10.708,10.699-28.079,10.715-38.786,0.008c-10.714-10.715-10.707-28.079,0.008-38.793s28.07-10.723,38.786-0.007
		C270.453,207.158,270.453,224.529,259.738,235.244z"/>
</g>
<rect display="none" fill="#454545" width="582.746" height="436.488"/>
<g id="OLYMPICS">
	<path fill="#FFFFFF" d="M199.326,403.136v-44.689c-0.46,0.1-0.91,0.189-1.37,0.27l-2.82,0.52l-6.65-11.93h-4.01v69.301h47.52
		v-13.471H199.326z"/>
	<path fill="#FFFFFF" d="M271.795,347.306l-8.119,14.85c-3.631,6.66-6.141,11.94-7.521,15.841c-1.92-4.95-4.43-10.261-7.53-15.94
		l-8.12-14.75h-17.119l25.239,42.86v26.44h15.051v-26.631l25.149-42.67H271.795z"/>
	<path fill="#FFFFFF" d="M345.545,347.306l-11.93,27.721c-3.71,8.58-5.92,14.06-6.65,16.43c-2.59-6.66-4.84-12.14-6.76-16.43
		l-12.13-27.721h-14.2v69.301h13.95v-26.631c0-6.54-0.1-11.619-0.3-15.25c2.18,5.15,4.26,10,6.24,14.551l12.87,29.109l12.97-29.21
		c3.3-7.45,5.38-12.27,6.24-14.45c-0.2,3.631-0.301,8.75-0.301,15.351v26.53h14.16v-69.301H345.545z"/>
	<path fill="#FFFFFF" d="M421.085,352.646c-4.229-3.56-10.17-5.34-17.819-5.34h-29.41v69.301h14.66v-24.16h13.859
		c7.851,0,14.021-1.811,18.511-5.44c4.75-3.96,7.13-9.77,7.13-17.43C428.016,362.126,425.706,356.476,421.085,352.646z
		 M402.826,379.777h-14.41v-19.801h14.55c6.801,0,10.2,3.271,10.2,9.801C413.166,376.447,409.715,379.777,402.826,379.777z"/>
	<path fill="#FFFFFF" d="M437.316,347.306v69.301h15.05v-69.301H437.316z"/>
	<path fill="#FFFFFF" d="M509.186,394.926c-1.91,3.23-3.82,5.54-5.74,6.931c-2.18,1.52-4.85,2.27-8.02,2.27
		c-4.95,0-8.74-2.08-11.381-6.23c-2.51-3.829-3.76-9.14-3.76-15.939c0-6.87,1.25-12.21,3.76-16.04c2.57-4.09,6.341-6.14,11.28-6.14
		c3.17,0,5.75,0.83,7.73,2.479c1.71,1.32,3.399,3.63,5.05,6.931l13.26-6.34c-2.51-5.611-5.68-9.73-9.5-12.371
		c-4.229-2.84-9.74-4.26-16.54-4.26c-9.1,0-16.46,3.27-22.07,9.801c-5.609,6.529-8.42,15.18-8.42,25.939
		c0,10.62,2.681,19.17,8.021,25.64c5.55,6.73,13.04,10.101,22.47,10.101c11.82,0,20.601-5.221,26.34-15.65L509.186,394.926z"/>
	<path fill="#FFFFFF" d="M576.706,381.957c-3.43-2.84-9.3-5.38-17.62-7.63c-5.149-1.38-8.649-2.65-10.489-3.81
		c-1.851-1.15-2.78-2.65-2.78-4.5c0-4.291,3.14-6.44,9.41-6.44c6.47,0,12.37,2.22,17.72,6.64l8.32-11.29
		c-7.07-5.81-15.45-8.71-25.15-8.71c-7.46,0-13.51,1.881-18.17,5.641c-4.65,3.76-6.98,8.75-6.98,14.949
		c0,6.2,1.921,10.891,5.75,14.061c3.16,2.64,9.011,5.08,17.521,7.319c5.15,1.391,8.71,2.73,10.69,4.011
		c1.979,1.29,2.97,2.92,2.97,4.899c0,4.82-3.891,7.23-11.681,7.23c-3.17,0-6.52-0.72-10.05-2.181c-3.529-1.449-6.55-3.26-9.06-5.439
		l-8.41,11.189c7.32,6.53,16.3,9.801,26.93,9.801c8.641,0,15.32-1.851,20.04-5.551c4.721-3.689,7.08-9.069,7.08-16.13
		C582.746,390.006,580.736,385.317,576.706,381.957z"/>
</g>
<g id="BOT">
	<path fill="#FFFFFF" d="M93.548,301.207c0,24.657-14.058,36.984-42.172,36.984H0V221.046h52.381
		c24.877,0,37.318,10.153,37.318,30.458c0,10.377-4.854,18.074-14.559,23.094C87.411,278.949,93.548,287.818,93.548,301.207z
		 M64.932,254.18h0.167c0-8.253-4.409-12.384-13.221-12.384H23.764v24.434h27.948C60.523,266.23,64.932,262.212,64.932,254.18z
		 M52.547,286.646H23.764v30.793h28.449c11.044,0,16.568-5.188,16.568-15.564C68.781,291.834,63.368,286.758,52.547,286.646z"/>
	<path fill="#FFFFFF" d="M353.298,243.805H319.83v94.386h-24.937v-94.386h-33.635v-22.759h92.04V243.805z"/>
</g>
<path fill="#209AB3" d="M155.96,400.158c2.058-4.008,3.468-8.346,4.187-12.818l15.29-8.492c-0.148-3.16-0.553-6.298-1.256-9.425
	l-16.979-4.235c-0.952-2.096-2.02-4.188-3.298-6.142c-1.246-1.95-2.618-3.535-4.073-5.112l1.634-9.726l1.256-7.501
	c-2.619-1.877-5.286-3.515-8.165-4.9l-7.233,5.535l-6.668,5.096c-4.347-1.18-8.854-1.621-13.422-1.275l-11.712-13.049
	c-3.026,0.834-5.936,1.953-8.896,3.346l-0.367,17.488c-3.706,2.736-6.853,6.01-9.368,9.678l-17.461,0.996
	c-1.256,2.906-2.24,5.951-2.98,9.066l13.417,11.186c-0.197,4.475,0.435,9.035,1.798,13.338L71.59,407.492
	c0.836,1.438,1.606,2.908,2.542,4.357c0.833,1.377,1.765,2.525,2.73,3.705l17.089-3.664c3.453,2.975,7.356,5.404,11.502,6.887
	l4.889,16.789c3.061,0.504,6.234,0.855,9.417,0.922l8.056-15.537c4.339-0.824,8.578-2.43,12.623-4.734l16.155,6.668
	c2.433-2.104,4.667-4.365,6.577-6.799L155.96,400.158z M130.692,397c-8.647,5.738-20.315,3.363-26.054-5.283
	c-5.713-8.65-3.36-20.297,5.288-26.034c8.653-5.735,20.317-3.382,26.049,5.261C141.704,379.593,139.339,391.259,130.692,397z"/>
<g>
	<path fill="#209AB3" d="M200.545,0c24.572,13.04,6.375,37.691,5.901,48.198C189.137,35.006,217.503,14.614,200.545,0z"/>
	<path fill="#209AB3" d="M241.43,278.6c1.025-6.612,1.439-13.977,0.981-22.19c-4.811-86.359-103.546-131.344-73.092-203.388
		c0,0-18.677,23.274-20.958,49.206c-2.745,31.177,16.493,55.146,12.257,87.961c-3.254,25.186-15.799,35.811-27.06,52.733
		c-0.34,0.502-0.68,1.01-1.004,1.527c-0.701,1.1-1.365,2.221-1.992,3.364c-0.192,0.362-0.384,0.724-0.568,1.085
		c-0.14,0.273-0.281,0.546-0.421,0.818l-0.31-0.006l-22.426-0.369c-1.365,3.873-2.494,7.829-3.239,11.858l16.131,9.017l3.734,2.089
		l0.059,0.03c-0.155,2.441-0.125,4.862-0.008,7.35l-0.066,0.036l-5.594,3.106l-14.286,7.926c0.76,4.021,1.875,7.963,3.247,11.865
		l14.751-0.242l7.836-0.125h0.155c1.077,2.184,2.28,4.338,3.66,6.396l-0.066,0.111l-4.405,7.363l-7.188,12.014
		c1.306,1.551,2.649,3.1,4.125,4.576c1.483,1.482,3.033,2.805,4.59,4.139l11.467-6.877l7.844-4.709l0.163-0.096
		c2.066,1.381,4.221,2.576,6.405,3.676l-0.007,0.221l-0.178,10.664l-0.191,11.852c3.911,1.313,7.859,2.441,11.888,3.188l4.022-7.238
		l6.907-12.436l0.169-0.303c2.428,0.164,4.878,0.156,7.335,0.008l0.162,0.295l5.697,10.229l5.269,9.459
		c4.015-0.744,7.955-1.859,11.874-3.254l-0.325-20.344l-0.037-2.148v-0.229c2.244-1.055,4.391-2.25,6.405-3.668l0.155,0.09
		l19.333,11.578c1.55-1.314,3.077-2.672,4.554-4.148c1.469-1.475,2.797-3.023,4.147-4.553l-11.623-19.4l-0.052-0.08
		c1.373-2.074,2.562-4.229,3.676-6.406h0.103l22.625,0.348c1.321-3.881,2.45-7.838,3.195-11.866l-19.872-11.024l-0.111-0.059
		 M201.811,295.351c-10.708,10.699-28.079,10.715-38.786,0.008c-10.714-10.715-10.707-28.078,0.008-38.793
		s28.07-10.723,38.786-0.008C212.525,267.265,212.525,284.636,201.811,295.351z"/>
</g>
<g>
	<path fill="#FFFFFF" d="M194.918,17.614c-52.267,78.493,18.949,125.057,31.308,157.584
		C270.725,129.36,166.32,95.984,194.918,17.614z"/>
	<path fill="#FFFFFF" d="M138.287,148.107c38.871,41.055-12.175,76.73-19.905,96.662C93.61,208.131,161.467,187.253,138.287,148.107
		z"/>
</g>
</svg>
